<svg xmlns="http://www.w3.org/2000/svg" viewBox="0 20 400 100">
    <style>
      @import url("https://fonts.googleapis.com/css2?family=Inter:opsz,wght@14..32,300&amp;display=swap&amp;text=Powered%20By");
    </style>
    <g>
      <text
        x="5"
        y="50"
        font-family="Inter"
        font-weight="300"
        font-size="2rem"
        font-optical-sizing="auto"
        font-style="normal"
        letter-spacing="-0.025em"
      >
        Powered By
      </text>
      <path d="m112.5 58.306-.583.111-.041 22.25-.04 22.25.623.115c.344.064 1.014.12 1.489.125.476.005.907.077.959.16.131.213 3.71.232 3.841.02.058-.094.382-.171.72-.172.339-.001 1.009-.049 1.49-.106l.875-.105V80.737c0-17.591-.043-22.245-.208-22.352-.253-.164-8.306-.233-9.125-.079m-99.75.353c-.367.075-1.398.189-2.292.254l-1.625.118V103h32.925l.198-.875c.261-1.153.265-5.131.006-6.245l-.204-.88H19V77.282c0-13.919-.045-17.776-.208-17.989-.157-.204-.725-.318-2.292-.458-1.146-.103-2.308-.215-2.583-.249-.275-.034-.8-.001-1.167.073m80.891 11.922c-.058.058-.569.171-1.134.251-.566.08-1.326.301-1.69.49-.363.19-.738.345-.833.345-.095 0-.419.187-.719.416-.301.23-.616.417-.702.417-.086 0-.282.131-.436.292-.153.16-.616.554-1.027.875-.411.32-.795.714-.852.875-.176.493-.371.325-.488-.417-.061-.39-.282-1.196-.491-1.792l-.38-1.083-.986-.213c-1.348-.292-6.124-.191-6.82.144l-.5.24-.042 15.655c-.024 8.611.017 15.716.091 15.789.073.073.73.177 1.459.231.729.053 1.481.171 1.67.262.508.244 5.935-.103 6.864-.439.163-.059.209-2.138.212-9.622l.003-9.547.405-1.147c1.004-2.846 3.195-4.08 6.551-3.691 1.171.136 2.704 1.274 2.704 2.008 0 .216.067.435.15.486.192.119.57 1.684.552 2.29-.007.256.057.508.143.561.093.058.155 3.833.155 9.42 0 5.127.056 9.324.125 9.326.841.02 2.525.241 2.759.363.351.181 3.503.135 4.116-.06.229-.074.923-.178 1.542-.233l1.125-.1-.002-11.278c-.001-10.558-.108-13.795-.471-14.255-.083-.104-.242-.474-.354-.82-.605-1.88-3.487-4.953-4.644-4.953-.102 0-.474-.151-.827-.334-1.006-.525-6.847-1.133-7.228-.752m62.026.103c-2.372.402-2.844.508-3.281.736-.258.135-.561.245-.673.246-.23.001-2.861 1.373-3.63 1.892-1.01.683-3.916 3.892-3.916 4.325 0 .056-.209.462-.465.901-.256.44-.571 1.137-.7 1.549-.129.413-.324.9-.433 1.084-.109.183-.25.82-.313 1.415-.063.595-.203 1.187-.31 1.317-.27.325-.273 6.206-.004 6.534.106.128.243.684.305 1.234.095.853.62 2.511 1.086 3.428.714 1.408 1.065 1.995 1.341 2.245.179.162.326.35.326.417 0 .401 3.166 3.16 3.626 3.16.099 0 .205.056.235.125.073.163 1.751 1.041 1.989 1.041.101 0 .419.112.708.249s1.088.356 1.775.488c.688.132 1.588.322 2 .422 1.183.288 6.358.41 8.25.194 1.984-.225 2.117-.247 2.338-.386.094-.059.907-.189 1.807-.289.9-.1 1.774-.256 1.941-.346.168-.09.694-.246 1.17-.348l.864-.186-.063-1.711c-.035-.94-.146-1.814-.247-1.94-.101-.127-.286-.643-.411-1.147-.523-2.112-1.568-2.916-2.737-2.105-.18.126-1.068.315-1.971.42-.904.106-1.804.281-2 .388-.591.323-5.864.279-6.691-.056-.366-.148-1.016-.321-1.444-.383-.428-.062-.869-.222-.979-.355-.11-.133-.296-.242-.411-.242-.195 0-1.588-1.282-2.018-1.856-.372-.497-.564-.964-.564-1.373 0-.23-.067-.459-.148-.509-.081-.05-.18-.317-.221-.593l-.074-.502h10.701c9.751 0 10.721-.025 10.93-.276.297-.358.335-7.372.042-7.74-.103-.129-.224-.581-.269-1.005-.045-.423-.205-1.016-.355-1.317-.15-.301-.273-.675-.273-.831 0-.157-.187-.561-.417-.899-.229-.338-.416-.69-.416-.784 0-.516-3.083-3.759-4.038-4.249-.3-.153-.584-.325-.63-.381-.139-.167-1.818-1.018-2.008-1.018-.097 0-.528-.161-.958-.358-1.343-.614-6.263-.982-8.366-.625m-114.795.317c-1.142.24-1.317.595-.79 1.605.137.263.294.74.348 1.061.055.32.199.808.322 1.083.122.275.277.725.344 1 .067.275.169.537.226.583.057.046.196.534.308 1.084.112.55.278 1.025.37 1.055.092.031.167.293.168.584.001.29.186.902.412 1.361.225.458.412 1.06.415 1.338.003.277.107.652.232.833.124.181.322.741.439 1.245.117.504.307 1.142.422 1.417.114.275.263.688.331.917.067.229.177.491.245.583.068.092.166.444.218.783.052.339.209.864.35 1.167.239.513.599 1.786.639 2.258.01.115.076.209.147.209.07 0 .178.356.24.791.061.436.203.942.314 1.125.112.184.3.709.419 1.167.264 1.019.857 2.773 1.014 3 .063.092.157.438.208.77.051.332.249.947.44 1.366.191.419.347.975.347 1.234 0 .26.101.62.225.801.124.181.28.553.347.827.177.729.256.747 3.287.749l2.776.003-.091.375c-.051.206-.157.458-.236.56-.079.102-.225.627-.325 1.167-.099.54-.241 1.056-.315 1.148-.073.092-.233.504-.355.917-.952 3.226-2.789 4.016-7.924 3.405-1.022-.121-1.37.226-1.515 1.514-.046.411-.142.747-.214.747-.678 0-.595 4.321.09 4.665.831.418 10.235.367 11.255-.061 1.208-.506 1.828-.837 1.828-.975 0-.071.083-.129.185-.129.862 0 3.787-4.135 4.084-5.773.04-.221.258-.822.485-1.335.227-.513.416-1.093.419-1.287.003-.195.15-.655.327-1.021.177-.367.325-.856.328-1.086.003-.231.154-.697.336-1.036.182-.339.38-.938.441-1.331s.213-.862.337-1.043c.124-.181.225-.432.225-.558 0-.126.104-.466.232-.754.127-.289.328-.901.446-1.359.117-.458.304-.983.415-1.167.11-.183.246-.633.3-1 .054-.366.251-.963.436-1.327.186-.363.338-.823.338-1.022 0-.199.112-.577.249-.84s.293-.74.348-1.061c.054-.32.205-.819.334-1.108.129-.289.235-.578.235-.642 0-.064.105-.352.232-.641.128-.289.33-.9.449-1.359.12-.458.315-1.02.434-1.25.119-.229.217-.555.218-.724 0-.17.103-.545.227-.834.51-1.182.607-1.474.607-1.833 0-.206.063-.447.14-.534.168-.19.737-1.837 1.034-2.991.118-.459.315-.982.437-1.162.122-.181.225-.519.228-.75.003-.232.151-.722.328-1.088.177-.367.324-.777.327-.91.006-.264.764-2.596 1.12-3.449.121-.289.219-.615.219-.725 0-.109.119-.449.264-.754.724-1.526-.117-1.79-5.347-1.683-4.567.094-4.503.065-4.915 2.254-.093.495-.234.983-.314 1.083-.08.101-.239.596-.354 1.1-.115.504-.249 1.029-.299 1.167-.049.137-.102.287-.118.333-.015.046-.125.441-.243.878s-.28.835-.361.885c-.08.05-.148.292-.151.539-.003.247-.155.861-.337 1.365-.36.994-.393 1.114-.557 2.025-.06.334-.225.838-.365 1.12-.14.281-.296.795-.345 1.142-.049.346-.207.892-.352 1.213-.144.321-.296.94-.338 1.375-.042.435-.136.792-.209.792-.073 0-.184.243-.246.541-.063.298-.21.767-.327 1.042-.117.275-.305.95-.418 1.5-.113.55-.271 1.082-.352 1.183-.082.101-.224.588-.318 1.084-.093.495-.288 1.152-.433 1.459-.145.308-.313.902-.373 1.319-.139.973-.411.975-.55.003-.06-.417-.181-.898-.27-1.069-.088-.172-.25-.725-.358-1.229-.205-.95-.637-2.563-.803-3-.052-.138-.107-.325-.121-.417-.014-.091-.068-.279-.12-.416-.052-.138-.185-.738-.297-1.334-.111-.596-.267-1.161-.345-1.256-.079-.095-.226-.692-.328-1.327-.101-.635-.248-1.232-.327-1.327-.078-.095-.257-.698-.396-1.34-.31-1.429-.733-3.162-.936-3.833-.084-.275-.235-.838-.336-1.25-.102-.413-.248-.9-.324-1.083-.077-.184-.23-.821-.342-1.417-.111-.596-.266-1.161-.344-1.256-.078-.095-.219-.62-.313-1.166-.255-1.492-.588-2.284-1.037-2.468-.515-.211-8.183-.303-9.106-.109m91.299.018c-1.043.158-1.758.538-1.574.837.049.079.015.144-.076.144s-.218.169-.282.375c-.065.206-.173.412-.242.458-.068.046-.383.571-.699 1.167-.315.596-.761 1.383-.99 1.75-.228.367-.466.779-.528.917-.061.137-.334.625-.607 1.083-.272.458-.647 1.133-.832 1.5-.368.727-.702 1.308-1.34 2.333-.229.367-.416.704-.417.75-.001.046-.183.384-.405.75-.223.367-.528.892-.679 1.167-.15.275-.483.867-.738 1.315l-.465.814.361.723c.199.398.44.772.535.831.096.059.28.342.41.629.249.552.298.635 1.258 2.132.336.524.656 1.098.712 1.274.056.177.25.455.431.619.181.164.329.368.329.452 0 .085.273.618.606 1.183.334.565.754 1.291.933 1.611.18.321.456.734.612.917.157.183.379.521.492.75.114.229.372.691.574 1.025 1.129 1.873 1.732 2.904 1.993 3.409.161.311.367.566.458.566.091 0 .166.102.166.226 0 .227 1.291.441 2.657.441.335 0 .689.08.787.177.299.3 6.917-.141 7.262-.484.11-.11-.604-1.658-.858-1.86-.058-.046-.202-.271-.321-.5-.408-.786-.778-1.417-1.126-1.917-.191-.275-.395-.612-.454-.75-.059-.137-.295-.55-.525-.916-.23-.367-.493-.836-.583-1.042-.09-.206-.226-.375-.302-.375-.075 0-.232-.263-.348-.583-.116-.321-.274-.584-.35-.584-.077 0-.223-.206-.323-.458-.101-.252-.517-.983-.923-1.625-.407-.642-.864-1.407-1.015-1.701-.152-.293-.381-.621-.51-.728-.129-.108-.235-.332-.235-.5 0-.167-.094-.364-.208-.438-.115-.073-.34-.396-.499-.716-.408-.818-.878-1.618-1.127-1.918-.174-.209-.163-.31.061-.557.15-.166.273-.364.273-.439 0-.076.177-.37.393-.654.216-.284.45-.697.52-.92.07-.222.195-.484.277-.583.297-.357 1.137-1.682 1.14-1.799.002-.065.416-.758.92-1.54.504-.781.917-1.464.917-1.517 0-.052.187-.341.416-.642.23-.3.417-.67.417-.822 0-.152.056-.276.125-.277.112-.001.753-.958.781-1.166.006-.046.18-.32.386-.609.206-.289.375-.602.375-.695 0-.094.168-.382.375-.641 1.041-1.308 1.159-2.093.347-2.293-.783-.193-7.56-.252-8.718-.076m46.751.01c-.456.087-.925.237-1.042.335-.279.231-.318 31.385-.04 31.557.6.371 6.402.629 7.827.348.32-.063.898-.153 1.283-.201l.7-.086.05-8.882c.034-6.11.107-8.955.232-9.116.101-.129.282-.609.403-1.067.318-1.207 1.817-3.417 2.318-3.417.074 0 .34-.161.59-.358.25-.197.804-.427 1.231-.511.427-.084.964-.195 1.193-.247.864-.195 4.023-.239 4.239-.059.591.49.806-.621.87-4.492.071-4.23.312-3.916-3.008-3.916-1.786 0-2.625.062-2.8.207-.137.113-.293.162-.348.108-.054-.055-.27.021-.48.168-.209.147-.554.267-.766.267-.211 0-.428.112-.48.25-.053.137-.175.25-.272.25-.265 0-1.942 1.286-2.786 2.137l-.747.753-.135-.737c-.075-.405-.204-.887-.288-1.07-.084-.183-.231-.643-.327-1.022s-.271-.769-.388-.866c-.572-.475-5.148-.692-7.029-.333m-18.44 7.028c1.265.378 3.173 2.301 3.191 3.215.003.171.113.499.244.728.131.229.241.66.244.958l.006.542H158c-5.993 0-6.167-.009-6.167-.323 0-.178.075-.37.167-.427.092-.057.167-.305.167-.552 0-.246.145-.711.322-1.031.177-.321.4-.754.497-.963.097-.209.289-.423.428-.476.139-.053.253-.203.253-.333s.187-.308.416-.395c.23-.087.418-.217.418-.288.002-.18.828-.545 1.241-.548.188-.001.454-.075.591-.164.368-.237 3.299-.197 4.149.057"/>
      <path d="M328.503 49.457c-.295.115-.336.158-1.505 1.543-.503.596-1.008 1.143-1.123 1.217-.562.359.533 1.638 5.204 6.078 1.346 1.28 1.425 1.504.78 2.202-1.177 1.27-1.206 2.222-.104 3.342l.756.767-.497 1.155c-.273.636-.65 1.453-.839 1.816-.188.363-.342.794-.342.958 0 .164-.063.298-.14.298-.077 0-.235.319-.352.709-.116.389-.268.745-.337.791-.355.235-.355.834 0 .834.22 0 .394-.13.448-.334.048-.183.145-.333.216-.333.071 0 .228-.338.35-.75.122-.413.28-.75.352-.75.071 0 .13-.075.13-.166 0-.092.225-.643.5-1.225.275-.582.5-1.144.5-1.25 0-.106.069-.192.153-.192.085 0 .205-.233.267-.517l.114-.516.532.516c.536.519 1.932.758 2.17.372.049-.079.41-.187.802-.239.392-.052.868-.143 1.06-.201.397-.122.673.105 3.564 2.928 2.052 2.004 2.403 2.167 2.585 1.199.064-.344.184-.667.267-.718.583-.36.36-1.648-.415-2.401-.428-.416-.846-.757-.927-.757-.082 0-.203-.168-.267-.375-.065-.206-.338-.6-.608-.875-.269-.275-.612-.706-.763-.958-.15-.252-.343-.458-.429-.458-.086 0-.021-.15.145-.334.166-.183.485-.333.709-.333.401 0 .405-.016.288-1.042-.146-1.286-.15-1.291-.788-1.291-.286 0-.844-.15-1.24-.334-.395-.183-1.057-.49-1.469-.681-.413-.192-.75-.42-.75-.507 0-.29-.726-1.145-.972-1.145-.207 0-.644-.414-1.954-1.847-.132-.146-.241-.325-.241-.4 0-.074-.45-.581-1-1.126-.55-.545-1-1.059-1-1.142 0-.084-.112-.152-.25-.152-.137 0-.25-.096-.25-.214 0-.211-2.836-3.308-3-3.276-.046.009-.194.06-.33.114m11.822 2.668c-.111.344-.258.7-.326.792-.069.091-.181.354-.248.583-.068.229-.311.829-.54 1.333-.228.504-.547 1.217-.708 1.584-.16.366-.421.953-.578 1.303-.283.631-.255 1.113.063 1.113.214 0 .845-.675.847-.906.001-.097.186-.552.411-1.01.226-.459.413-.894.415-.968.003-.074.147-.449.32-.833.173-.385.467-1.039.655-1.455.187-.416.391-.96.454-1.21.062-.25.18-.495.262-.546.309-.191.129-.405-.339-.405-.416 0-.517.091-.688.625M383.5 54c0 .092-.104.167-.232.167-.427 0-.435.429-.435 23.5 0 23.07.008 23.5.435 23.5.128 0 .232.075.232.166 0 .106 1.25.167 3.417.167 2.166 0 3.416-.061 3.416-.167 0-.091.105-.166.233-.166.426 0 .434-.43.434-23.5 0-23.071-.008-23.5-.434-23.5-.128 0-.233-.075-.233-.167 0-.106-1.25-.167-3.416-.167-2.167 0-3.417.061-3.417.167m-170.743 1.028c-1.005.082-1.867.211-1.917.287-.049.076-.465.194-.923.261-.459.067-1.136.26-1.506.428-.37.168-.876.356-1.125.419-.249.062-.453.165-.453.228 0 .064-.262.21-.583.326-.321.116-.583.281-.583.367 0 .086-.112.156-.249.156s-.342.15-.457.333c-.114.184-.295.334-.4.334-.291 0-1.948 1.772-2.186 2.338-.115.272-.272.495-.349.495-.077 0-.242.319-.367.708-.126.39-.297.757-.382.815-.084.059-.233.752-.331 1.542-.098.789-.238 1.435-.312 1.435-.074 0-.134.825-.134 1.833 0 1.009.065 1.834.144 1.834.079 0 .194.497.257 1.105.135 1.319 1.228 3.757 1.837 4.098.144.081.262.237.262.348 0 .173.389.558 1.804 1.782.159.137.512.362.784.5.273.137.555.343.629.458.073.115.236.209.363.209.126 0 .329.094.45.21.317.302 3.59 1.956 3.872 1.956.13 0 .262.057.292.125.031.069.58.388 1.219.709.64.32 1.26.672 1.376.78.117.109.372.248.567.31.195.062.588.367.873.678.285.311.615.565.732.565.118 0 .285.188.372.417.087.229.231.416.318.416.088 0 .205.141.259.314.055.172.244.48.421.683.176.203.37.701.431 1.105.06.405.176.777.257.827.193.119.193 2.905 0 2.905-.082 0-.2.275-.263.611-.177.941-1.315 2.332-2.245 2.744-.281.124-.511.277-.511.34s-.431.209-.958.324c-.527.116-1.012.29-1.078.387-.166.248-6.273.234-6.431-.015-.064-.1-.679-.28-1.366-.4-.688-.12-1.295-.284-1.349-.364-.055-.081-.502-.123-.995-.095-1.09.062-1.439.594-1.84 2.801-.109.596-.273 1.179-.365 1.296-.092.118-.175.827-.184 1.577l-.017 1.364.5.171c.275.094.537.221.584.283.046.062.571.21 1.166.33.596.12 1.12.268 1.166.328.461.61 12.105.603 12.917-.007.092-.069.635-.222 1.208-.34.573-.118 1.042-.265 1.042-.327 0-.061.371-.207.824-.323.453-.116.906-.311 1.006-.432.101-.121.368-.267.594-.323.225-.057.409-.177.409-.267 0-.09.096-.163.213-.163.211 0 .74-.422 2.043-1.628.708-.655 1.744-2.058 1.744-2.361 0-.098.069-.178.154-.178.084 0 .204-.244.266-.542.062-.298.207-.691.323-.875.284-.451.591-2.298.591-3.555 0-.574.073-1.028.166-1.028.092 0 .167-.187.167-.417 0-.229-.075-.416-.167-.416-.093 0-.166-.465-.166-1.061 0-1.243-.238-2.651-.568-3.356-.128-.275-.319-.687-.424-.917-.391-.852-.698-1.333-.851-1.333-.086 0-.157-.103-.157-.228 0-.298-2.141-2.439-2.439-2.439-.125 0-.228-.077-.228-.17 0-.094-.187-.243-.417-.33-.229-.087-.416-.23-.416-.318s-.263-.255-.584-.371c-.321-.116-.583-.275-.583-.353 0-.078-.225-.22-.5-.316s-.5-.234-.5-.307c0-.072-.186-.178-.412-.235-.227-.057-.688-.29-1.024-.518-.336-.228-.713-.415-.837-.415-.125 0-.227-.063-.227-.14 0-.077-.3-.239-.667-.36-.366-.121-.666-.269-.666-.329s-.263-.212-.584-.338c-.321-.126-.583-.28-.583-.344 0-.063-.217-.205-.482-.315-.722-.299-2.734-2.463-3.261-3.507-1.214-2.403-.176-6.096 1.855-6.606.214-.053.388-.154.388-.223s.469-.216 1.042-.327c.573-.111 1.172-.271 1.331-.356.364-.195 3.006-.204 3.219-.011.087.079.758.241 1.491.36.734.12 1.378.284 1.433.366.054.082.526.193 1.048.247 1.167.12 1.457-.121 1.757-1.459.111-.499.266-1.058.343-1.241.236-.563.503-2.258.503-3.197 0-.932-.549-1.551-1.375-1.553-.161 0-.292-.069-.292-.152 0-.083-.544-.238-1.208-.343-.665-.105-1.359-.262-1.542-.348-.183-.085-1.458-.23-2.833-.321-2.764-.182-2.599-.183-5.16.025m98.564 3.736-.404.43.057 5.986.057 5.987h-1.682c-1.011 0-1.682.066-1.682.166 0 .092-.132.169-.292.172-.879.016-.958.3-.958 3.434 0 3.695-.102 3.561 2.694 3.561h1.907l-.051 11.156-.05 11.156.368.344c.566.529 6.863.53 7.43.001l.368-.343.045-11.157.046-11.157h2.996c3.286 0 3.663-.111 3.663-1.073 0-.224.075-.454.167-.51.213-.132.224-4.417.012-4.417-.086 0-.179-.161-.209-.358-.029-.197-.166-.41-.303-.474-.138-.064-.418-.203-.623-.309-.236-.122-1.347-.192-3.034-.192h-2.661l-.049-6.099-.05-6.098-.393-.318c-.358-.29-.693-.319-3.679-.319h-3.286l-.404.431m26.648 1.334c.521.237 1.197.556 1.501.708l.553.277-.511.053c-.282.028-.512.113-.512.188 0 .076-.501.191-1.112.256-.612.066-1.224.162-1.36.214-.324.124-.16-1.774.171-1.984.286-.181.191-.203 1.27.288m1.172 2.675c-1.465 1.225-1.761 1.272-2.221.35-.14-.281-.236-.526-.212-.546.034-.029 2.024-.291 2.933-.387.123-.013-.102.249-.5.583M249.5 70.667c0 .091-.287.166-.639.166-.743 0-2.572.339-2.694.499-.046.06-.44.207-.875.327-.436.12-.792.28-.792.356 0 .076-.3.228-.667.338-.366.11-.666.256-.666.324s-.225.202-.5.298c-.275.096-.5.253-.5.35 0 .096-.094.177-.209.18-.114.002-.5.225-.856.495-.775.586-.935.527-.935-.343 0-.361-.061-.657-.135-.657-.074 0-.205-.319-.292-.708l-.157-.709-3-.047c-3.379-.054-3.75-.007-3.75.467 0 .182-.064.33-.142.33-.078 0-.203 7.182-.279 15.959-.183 21.325-.186 23.657-.023 23.819.329.33 7.238.262 7.575-.075.351-.351.535-3.862.536-10.248v-3.129l.458.292c.252.16.505.356.561.435.111.155.556.425 1.481.899.321.164.621.344.667.4.046.056.383.205.75.332.366.127.71.291.764.364.053.073.747.221 1.541.329.795.109 1.445.256 1.445.327 0 .071.937.13 2.083.13 1.146 0 2.083-.059 2.083-.131 0-.072.724-.216 1.608-.321.885-.106 1.653-.261 1.709-.346.055-.085.494-.247.975-.361.481-.115.875-.272.875-.351 0-.079.3-.234.667-.343.366-.11.666-.258.666-.329 0-.071.156-.179.346-.239.191-.06.61-.365.931-.678.322-.312.644-.568.716-.568.114 0 .533-.438 1.833-1.917.162-.183.347-.502.412-.708.065-.206.183-.375.263-.375.079 0 .239-.263.355-.583.116-.321.259-.584.318-.584.058 0 .207-.318.33-.708.123-.39.277-.783.344-.875.067-.092.209-.654.317-1.25.108-.596.28-1.256.382-1.467.254-.525.26-6.362.008-6.89-.104-.216-.278-.937-.387-1.601-.109-.665-.254-1.209-.323-1.209s-.217-.412-.33-.916c-.113-.505-.272-.917-.353-.917-.082 0-.238-.3-.348-.667-.11-.366-.254-.666-.32-.666s-.213-.225-.327-.5c-.114-.275-.268-.5-.342-.5-.075 0-.177-.132-.228-.292-.116-.363-1.736-2.047-2.564-2.665-.339-.253-.709-.548-.823-.655-.113-.107-.426-.243-.694-.302-.268-.058-.526-.205-.572-.325-.046-.121-.371-.273-.722-.339s-.683-.193-.738-.283c-.056-.089-.825-.249-1.709-.354-.884-.105-1.608-.25-1.608-.322 0-.071-.787-.13-1.75-.13-1.056 0-1.75.066-1.75.167m32.167 0c0 .091-.238.166-.528.166-.745 0-2.639.345-2.639.481 0 .062-.338.213-.75.335-.413.121-.75.28-.75.351 0 .072-.169.173-.375.225-.376.095-.892.438-1.478.983-.173.161-.37.294-.439.296-.152.004-1.875 1.74-1.875 1.89 0 .058-.131.247-.291.42-.546.586-.889 1.102-.984 1.478-.052.206-.147.375-.212.375-.064 0-.22.262-.346.583-.126.321-.282.583-.346.583s-.168.282-.231.625c-.063.344-.214.78-.336.97-.122.19-.319.94-.439 1.667-.119.727-.295 1.375-.391 1.441-.251.172-.233 6.625.021 7.147.107.22.282.888.39 1.484.108.596.251 1.158.318 1.25.066.091.221.485.344.875.123.389.274.708.337.708.062 0 .212.3.333.667.121.366.285.666.364.666.079 0 .216.188.303.417.087.229.235.417.329.417.094 0 .171.096.171.215 0 .276 1.963 2.25 2.363 2.378.167.052.303.17.303.26s.225.242.5.338c.275.096.5.233.5.303 0 .071.357.227.792.347.435.119.84.289.898.376.059.087.715.24 1.458.34.744.099 1.352.24 1.352.312 0 .181 3.438.165 3.794-.018.159-.082.849-.235 1.533-.339.684-.105 1.284-.253 1.334-.33.049-.077.341-.195.649-.262.658-.143 2.19-.91 2.19-1.097 0-.072.225-.18.499-.24.275-.06.556-.197.625-.305.07-.108.318-.294.552-.414.234-.121.662-.439.949-.708.896-.837 1.042-.7 1.042.973 0 2.303-.176 2.204 3.926 2.204 3.311 0 3.418-.011 3.782-.375l.375-.375-.059-14.167c-.033-7.791-.108-14.204-.167-14.25-.059-.046-.19-.233-.292-.416-.173-.314-.382-.336-3.535-.379l-3.351-.045-.26.397c-.143.219-.307.895-.364 1.504-.057.608-.131 1.106-.165 1.106-.175 0-.831-.454-1.022-.708-.121-.161-.328-.292-.461-.292-.132 0-.24-.071-.24-.158 0-.169-.537-.498-1.542-.947-.344-.153-.625-.333-.625-.399 0-.065-.356-.217-.792-.337-.435-.12-.833-.28-.885-.355-.051-.076-.67-.23-1.375-.342-.705-.112-1.281-.262-1.281-.333 0-.071-.788-.129-1.75-.129-1.056 0-1.75.066-1.75.167m76.256-.011c-.045.074-.55.186-1.122.251-.572.065-1.345.257-1.718.427-.373.169-.882.359-1.13.422-.249.062-.453.18-.453.262 0 .082-.106.149-.236.149-1.293 0-6.431 5.42-6.431 6.785 0 .118-.066.215-.147.215-.08 0-.236.355-.345.789-.11.434-.266.871-.349.97-.082.099-.242.738-.356 1.419-.114.681-.285 1.292-.38 1.357-.245.169-.233 6.504.013 6.814.102.129.231.637.286 1.13.056.493.356 1.431.667 2.084.312.653.726 1.524.922 1.937.703 1.485 3.98 4.833 4.73 4.833.083 0 .266.116.408.258.142.142.474.302.738.354.264.053.48.15.48.216 0 .181 1.21.505 1.885.505.327 0 .642.075.698.167.057.092.324.167.594.167.269 0 .49.082.49.182 0 .119.273.15.791.09.436-.051 1.675-.141 2.755-.199 1.34-.073 2.037-.181 2.197-.34.128-.128.418-.233.644-.233.226 0 .454-.113.506-.25.053-.138.239-.25.413-.25.451 0 3.019-1.345 3.593-1.882.265-.249.578-.452.694-.452.117 0 .25-.093.296-.208.047-.115.09.268.098.849.009.787.101 1.182.357 1.542l.345.484h3.38c3.523 0 3.931-.083 3.931-.805 0-.107.075-.195.166-.195.103 0 .167-.833.167-2.167 0-1.305-.065-2.166-.163-2.166-.105 0-.18-4.332-.209-12.097-.044-11.813-.052-12.103-.373-12.337-.265-.193-.971-.231-3.666-.195l-3.339.045-.157.709c-.086.389-.218.708-.292.708-.074 0-.134.188-.134.418 0 .4-.391.36-.834-.085-.269-.271-1.896-1.159-2.75-1.501-.55-.22-1.089-.465-1.198-.545-.461-.336-6.292-.905-6.462-.631m3.718.796c.06.093.559.224 1.109.292.55.067 1.075.174 1.167.237.091.064.466.214.833.335 2.493.817 4.417 2.494 4.417 3.852 0 .803-.011.821-.302.53-.166-.166-.449-.41-.628-.541-.179-.132-.45-.435-.602-.674-.152-.238-.527-.552-.833-.697-.307-.146-.819-.439-1.138-.651-.319-.213-.896-.536-1.281-.719-.436-.207-.736-.478-.797-.717-.1-.398-1.356-.405-1.853-.011-.347.275-1.558.22-1.778-.08-.314-.429-2.955-.223-2.955.23 0 .074-.239.188-.53.252-.318.07-.854.449-1.339.946-.619.636-.859.787-1.026.648-.121-.099-.268-.132-.329-.071-.06.06-.109.022-.109-.085 0-.107.135-.195.3-.195.186 0 .374-.204.497-.541.109-.298.422-.668.695-.822.272-.155.542-.467.599-.694.114-.451.336-.539 1.791-.71.523-.062.951-.168.951-.237 0-.189 3.016-.071 3.141.123m-30.332.16c-.463.122-.471.383-.473 14.916-.003 14.215.01 14.639.432 14.639.128 0 .232.075.232.166 0 .106 1.25.167 3.417.167 2.166 0 3.416-.061 3.416-.167 0-.091.111-.166.247-.166.422 0 .431-.383.383-14.952-.046-13.978-.052-14.205-.38-14.453-.32-.241-6.453-.369-7.274-.15m34.352 4.117c.003.08-.107.052-.244-.062-.138-.114-.25-.325-.25-.469 0-.284.484.235.494.531m-10.828 1.527c0 .601.077.786.417 1.009.5.328.546.735.083.735-.24 0-.333.111-.333.399 0 .448.433.697.752.432.218-.181 1.048.081 1.275.402.06.085.379.145.708.133.766-.029.754.121-.058.727-.361.27-.694.633-.741.807-.13.488.079 1.267.34 1.267.129 0 .277.109.328.243.051.134.228.287.392.339.163.052.343.319.397.593.115.573.537.811.84.472.204-.227.645-1.783.589-2.08-.07-.372.031-.549.261-.461.138.053.25.194.25.314 0 .291.35.403.697.224.208-.106.307-.061.382.174.056.175.291.443.522.595.486.317.298.749-.329.759-.402.007-1.17.603-1.319 1.024-.117.328.29.752.459.478.059-.096.196-.174.304-.174.108 0-.012.206-.266.458s-.759.752-1.123 1.11c-.435.43-.66.801-.66 1.088 0 .24-.131.553-.292.696-.16.142-.457.471-.659.73-.299.384-.412.434-.611.269-.388-.323-1.931-.37-2.546-.078-.584.277-.889 1.451-.666 2.565.054.272.045.494-.022.493-.277-.004-1.204-1.145-1.204-1.483 0-.202-.148-.691-.328-1.087-.18-.396-.38-1.048-.443-1.449s-.222-.895-.354-1.098c-.692-1.068-.399-3.18.578-4.156.494-.494.572-.671.498-1.127-.048-.297.023-.984.159-1.527.381-1.527.399-1.764.205-2.613-.139-.604-.257-.791-.5-.791-.622 0 .02-.623.742-.72.366-.049.733-.209.815-.355.244-.436.461-.122.461.664m7.012-.256c.424 0 1.655 1.567 1.655 2.108 0 .307-.075.559-.167.559-.217 0-.214.6.006 1.011.127.237.119.322-.031.322-.348 0-.975-.706-.975-1.099 0-.548-.17-.901-.434-.901-.128 0-.232-.104-.232-.231 0-.286-.784-.819-1.005-.683-.295.183-.168-.367.191-.824.209-.265.454-.411.597-.355.134.051.312.093.395.093m5.655.25c0 .137-.067.25-.149.25-.082 0-.192-.113-.245-.25-.058-.152 0-.25.149-.25.135 0 .245.112.245.25m-80.337.428c.594.096 1.119.238 1.167.314.047.077.405.226.795.331.39.104.708.253.708.33 0 .077.22.231.488.342.269.111.529.308.578.437.05.129.205.235.346.235.14 0 .255.108.255.24 0 .133.145.342.321.466.177.123.414.428.527.676.113.248.265.451.338.451.78 0 .659 8.676-.133 9.47-.121.121-.22.284-.22.362 0 .238-1.525 1.835-1.752 1.835-.117 0-.255.112-.308.25-.053.137-.177.25-.277.25-.099 0-.501.145-.891.323-.391.178-1.101.376-1.578.439-.477.063-.908.18-.957.26-.117.189-1.492.187-1.864-.004-.159-.081-.734-.23-1.278-.331-.544-.1-1.031-.241-1.083-.313-.052-.072-.304-.223-.56-.335-.542-.239-.669-.339-1.877-1.483-.499-.474-.908-.939-.908-1.034 0-.095-.102-.232-.226-.306-.125-.073-.318-.414-.43-.758-.112-.344-.259-.625-.328-.625-.164 0-.516-1.536-.516-2.253 0-.308-.075-.607-.167-.664-.091-.056-.166-.319-.166-.583 0-.264.075-.527.166-.583.092-.057.167-.356.167-.664 0-.717.352-2.253.516-2.253.069 0 .216-.281.328-.625.112-.344.305-.685.43-.758.124-.074.226-.208.226-.3 0-.217 1.6-1.817 1.817-1.817.092 0 .226-.094.3-.208.171-.268.809-.625 1.117-.625.131 0 .264-.079.297-.175.137-.411 2.885-.598 4.632-.314m-36.357.343c.03.08.212.146.403.146 2.229 0 5.645 3.8 5.903 6.568.057.604.167 1.098.245 1.098.079 0 .143.3.143.667 0 .367-.065.667-.143.667-.079 0-.186.413-.238.918-.095.915-.848 2.712-1.244 2.965-.115.073-.208.218-.208.322 0 .235-1.999 2.128-2.247 2.128-.052 0-.373.181-.715.401-.342.221-.884.456-1.205.521-.321.066-.637.204-.702.307-.161.253-4.264.259-4.429.006-.065-.099-.493-.274-.95-.387-.457-.113-.87-.264-.917-.335-.047-.07-.277-.234-.51-.362-1.068-.588-1.455-.921-1.994-1.716-.317-.468-.617-.889-.666-.935-.806-.757-.71-8.476.115-9.304.121-.121.22-.295.22-.386 0-.706 3.466-3.143 4.471-3.143.199 0 .362-.071.362-.157 0-.335 4.178-.324 4.306.011m104.107 3.104c.138.922.085.829.504.901.257.044.345-.047.386-.401.029-.252.122-.458.208-.458s.156-.188.156-.417c0-.377-.066-.417-.686-.417h-.686l.118.792m1.045.888c-.407.238-.389.987.024.987.33 0 .518-.307.518-.847 0-.358-.116-.388-.542-.14m-.398 1.404c-.123.322.078 1.129.319 1.278.522.322.975-.513.687-1.265-.129-.335-.879-.345-1.006-.013m1.31 1.676c-.444.311-.48.683-.078.81.216.069.291.272.291.788 0 .788.333 1.048.573.448l.156-.389.011.375c.013.455 1.07.561 1.237.125.053-.138.203-.25.334-.25.255 0 .481-.403.317-.567-.055-.055-.237-.1-.405-.1-.169 0-.306-.115-.306-.255s-.131-.305-.292-.366c-.16-.061-.428-.284-.595-.495-.355-.448-.727-.486-1.243-.124m-.706 8.282c-.006.462-.266.654-.501.37-.189-.228-.187-.294.014-.422.332-.21.49-.193.487.052m8.139 1.978c.293.183.428.187.695.02.552-.345.835-.255.835.266 0 .644.15.744.637.425.227-.149.795-.298 1.263-.331.552-.04.923-.16 1.057-.343.486-.664.41.055-.105.998-.718 1.312-.913 1.531-1.977 2.213-.481.309-.875.619-.875.689 0 .172-1.396 1.043-1.673 1.043-.122 0-.377.142-.566.316-.19.174-.729.367-1.203.43l-.859.115.017-.598c.021-.736-.147-.914-.98-1.04-1.3-.196-2.073-1.556-1.343-2.363.163-.179.302-.549.309-.821.023-.787.545-1.383.849-.97.272.369.783.258.783-.17 0-.349 2.541-.251 3.136.121"/>
    </g>
  </svg>
  